<mxfile host="app.diagrams.net" modified="2021-02-27T20:18:21.090Z" agent="5.0 (Windows NT 10.0; Win64; x64) AppleWebKit/537.36 (KHTML, like Gecko) Chrome/88.0.4324.190 Safari/537.36" etag="oVvP__muil5H5TZ_7JrW" version="14.4.3" type="github">
  <diagram id="9Rhb1mpeZ9tAiZlq9oDw" name="Page-1">
    <mxGraphModel dx="1248" dy="677" grid="1" gridSize="10" guides="1" tooltips="1" connect="1" arrows="1" fold="1" page="1" pageScale="1" pageWidth="827" pageHeight="1169" math="0" shadow="0">
      <root>
        <mxCell id="0" />
        <mxCell id="1" parent="0" />
        <mxCell id="0DL_U8hL-LAHc2jkmgp_-1" value="&lt;h1 style=&quot;text-align: justify&quot;&gt;Diagrama de flujo (3)&lt;/h1&gt;&lt;p style=&quot;text-align: justify&quot;&gt;1. Desarrollar un D.F que permita el pago de comisiones por ventas efectuadas por un vendedor, según la siguiente escala:&lt;/p&gt;&lt;ul style=&quot;padding: 0px ; margin: 0px 0px 0px 25px ; font-family: &amp;#34;latoweb&amp;#34; , &amp;#34;lato extended&amp;#34; , &amp;#34;lato&amp;#34; , &amp;#34;helvetica neue&amp;#34; , &amp;#34;helvetica&amp;#34; , &amp;#34;arial&amp;#34; , sans-serif&quot;&gt;&lt;li style=&quot;text-align: justify&quot;&gt;&lt;span style=&quot;background-color: rgb(255 , 255 , 255)&quot;&gt;Venta &amp;lt; 100 Bs. 1% de comisión&lt;/span&gt;&lt;/li&gt;&lt;li style=&quot;text-align: justify&quot;&gt;&lt;span style=&quot;background-color: rgb(255 , 255 , 255)&quot;&gt;100&amp;lt;= Venta &amp;lt; 500 5% de comisión&lt;/span&gt;&lt;/li&gt;&lt;li style=&quot;text-align: justify&quot;&gt;&lt;span style=&quot;background-color: rgb(255 , 255 , 255)&quot;&gt;500&amp;lt;= Venta &amp;lt; 1000 7 % de comisión&lt;/span&gt;&lt;/li&gt;&lt;li style=&quot;text-align: justify&quot;&gt;&lt;span style=&quot;background-color: rgb(255 , 255 , 255)&quot;&gt;Venta &amp;gt;= 1000 10 % de comisión&lt;/span&gt;&lt;/li&gt;&lt;/ul&gt;&lt;div style=&quot;text-align: justify&quot;&gt;&lt;span style=&quot;font-family: &amp;#34;latoweb&amp;#34; , &amp;#34;lato extended&amp;#34; , &amp;#34;lato&amp;#34; , &amp;#34;helvetica neue&amp;#34; , &amp;#34;helvetica&amp;#34; , &amp;#34;arial&amp;#34; , sans-serif ; background-color: rgb(255 , 255 , 255)&quot;&gt;Determinar el valor que se paga en comisiones a un determinado vendedor dado el monto de su venta.&lt;/span&gt;&lt;font color=&quot;#2d3b45&quot; face=&quot;latoweb, lato extended, lato, helvetica neue, helvetica, arial, sans-serif&quot;&gt;&lt;br&gt;&lt;/font&gt;&lt;/div&gt;" style="text;html=1;strokeColor=none;fillColor=none;spacing=5;spacingTop=-20;whiteSpace=wrap;overflow=hidden;rounded=0;" vertex="1" parent="1">
          <mxGeometry x="30" y="20" width="460" height="180" as="geometry" />
        </mxCell>
        <mxCell id="0DL_U8hL-LAHc2jkmgp_-4" value="" style="edgeStyle=orthogonalEdgeStyle;rounded=0;orthogonalLoop=1;jettySize=auto;html=1;" edge="1" parent="1" source="0DL_U8hL-LAHc2jkmgp_-2" target="0DL_U8hL-LAHc2jkmgp_-3">
          <mxGeometry relative="1" as="geometry" />
        </mxCell>
        <mxCell id="0DL_U8hL-LAHc2jkmgp_-2" value="Inicio" style="ellipse;whiteSpace=wrap;html=1;" vertex="1" parent="1">
          <mxGeometry x="440" y="200" width="120" height="80" as="geometry" />
        </mxCell>
        <mxCell id="0DL_U8hL-LAHc2jkmgp_-9" value="" style="edgeStyle=orthogonalEdgeStyle;rounded=0;orthogonalLoop=1;jettySize=auto;html=1;" edge="1" parent="1" source="0DL_U8hL-LAHc2jkmgp_-3" target="0DL_U8hL-LAHc2jkmgp_-5">
          <mxGeometry relative="1" as="geometry" />
        </mxCell>
        <mxCell id="0DL_U8hL-LAHc2jkmgp_-3" value="Leer V" style="shape=parallelogram;perimeter=parallelogramPerimeter;whiteSpace=wrap;html=1;fixedSize=1;" vertex="1" parent="1">
          <mxGeometry x="440" y="300" width="120" height="60" as="geometry" />
        </mxCell>
        <mxCell id="0DL_U8hL-LAHc2jkmgp_-5" value="V&amp;lt;100" style="rhombus;whiteSpace=wrap;html=1;" vertex="1" parent="1">
          <mxGeometry x="460" y="390" width="80" height="80" as="geometry" />
        </mxCell>
        <mxCell id="0DL_U8hL-LAHc2jkmgp_-6" value="100&amp;lt;=V&amp;lt;500" style="rhombus;whiteSpace=wrap;html=1;" vertex="1" parent="1">
          <mxGeometry x="340" y="470" width="80" height="80" as="geometry" />
        </mxCell>
        <mxCell id="0DL_U8hL-LAHc2jkmgp_-7" value="500&amp;lt;=V&amp;lt;1000" style="rhombus;whiteSpace=wrap;html=1;" vertex="1" parent="1">
          <mxGeometry x="220" y="550" width="80" height="80" as="geometry" />
        </mxCell>
        <mxCell id="0DL_U8hL-LAHc2jkmgp_-10" value="" style="endArrow=classic;html=1;exitX=0;exitY=0.5;exitDx=0;exitDy=0;entryX=0.5;entryY=0;entryDx=0;entryDy=0;" edge="1" parent="1" source="0DL_U8hL-LAHc2jkmgp_-5" target="0DL_U8hL-LAHc2jkmgp_-6">
          <mxGeometry width="50" height="50" relative="1" as="geometry">
            <mxPoint x="390" y="470" as="sourcePoint" />
            <mxPoint x="440" y="420" as="targetPoint" />
            <Array as="points">
              <mxPoint x="380" y="430" />
            </Array>
          </mxGeometry>
        </mxCell>
        <mxCell id="0DL_U8hL-LAHc2jkmgp_-11" value="" style="endArrow=classic;html=1;exitX=0;exitY=0.5;exitDx=0;exitDy=0;entryX=0.5;entryY=0;entryDx=0;entryDy=0;" edge="1" parent="1" source="0DL_U8hL-LAHc2jkmgp_-6" target="0DL_U8hL-LAHc2jkmgp_-7">
          <mxGeometry width="50" height="50" relative="1" as="geometry">
            <mxPoint x="390" y="470" as="sourcePoint" />
            <mxPoint x="440" y="420" as="targetPoint" />
            <Array as="points">
              <mxPoint x="260" y="510" />
            </Array>
          </mxGeometry>
        </mxCell>
        <mxCell id="0DL_U8hL-LAHc2jkmgp_-12" value="" style="endArrow=classic;html=1;exitX=0;exitY=0.5;exitDx=0;exitDy=0;entryX=0.5;entryY=0;entryDx=0;entryDy=0;" edge="1" parent="1" source="0DL_U8hL-LAHc2jkmgp_-7" target="0DL_U8hL-LAHc2jkmgp_-16">
          <mxGeometry width="50" height="50" relative="1" as="geometry">
            <mxPoint x="390" y="470" as="sourcePoint" />
            <mxPoint x="130" y="630" as="targetPoint" />
            <Array as="points">
              <mxPoint x="130" y="590" />
            </Array>
          </mxGeometry>
        </mxCell>
        <mxCell id="0DL_U8hL-LAHc2jkmgp_-37" value="" style="edgeStyle=orthogonalEdgeStyle;rounded=0;orthogonalLoop=1;jettySize=auto;html=1;" edge="1" parent="1" source="0DL_U8hL-LAHc2jkmgp_-13" target="0DL_U8hL-LAHc2jkmgp_-30">
          <mxGeometry relative="1" as="geometry" />
        </mxCell>
        <mxCell id="0DL_U8hL-LAHc2jkmgp_-13" value="C=V*0.01" style="rounded=1;whiteSpace=wrap;html=1;" vertex="1" parent="1">
          <mxGeometry x="620" y="480" width="120" height="60" as="geometry" />
        </mxCell>
        <mxCell id="0DL_U8hL-LAHc2jkmgp_-38" value="" style="edgeStyle=orthogonalEdgeStyle;rounded=0;orthogonalLoop=1;jettySize=auto;html=1;" edge="1" parent="1" source="0DL_U8hL-LAHc2jkmgp_-14" target="0DL_U8hL-LAHc2jkmgp_-36">
          <mxGeometry relative="1" as="geometry" />
        </mxCell>
        <mxCell id="0DL_U8hL-LAHc2jkmgp_-14" value="C=V*0.05" style="rounded=1;whiteSpace=wrap;html=1;" vertex="1" parent="1">
          <mxGeometry x="460" y="555" width="120" height="60" as="geometry" />
        </mxCell>
        <mxCell id="0DL_U8hL-LAHc2jkmgp_-39" value="" style="edgeStyle=orthogonalEdgeStyle;rounded=0;orthogonalLoop=1;jettySize=auto;html=1;" edge="1" parent="1" source="0DL_U8hL-LAHc2jkmgp_-15" target="0DL_U8hL-LAHc2jkmgp_-34">
          <mxGeometry relative="1" as="geometry" />
        </mxCell>
        <mxCell id="0DL_U8hL-LAHc2jkmgp_-15" value="C=V*0.07" style="rounded=1;whiteSpace=wrap;html=1;" vertex="1" parent="1">
          <mxGeometry x="320" y="640" width="120" height="60" as="geometry" />
        </mxCell>
        <mxCell id="0DL_U8hL-LAHc2jkmgp_-40" value="" style="edgeStyle=orthogonalEdgeStyle;rounded=0;orthogonalLoop=1;jettySize=auto;html=1;" edge="1" parent="1" source="0DL_U8hL-LAHc2jkmgp_-16" target="0DL_U8hL-LAHc2jkmgp_-35">
          <mxGeometry relative="1" as="geometry" />
        </mxCell>
        <mxCell id="0DL_U8hL-LAHc2jkmgp_-16" value="C=V*0.1" style="rounded=1;whiteSpace=wrap;html=1;" vertex="1" parent="1">
          <mxGeometry x="70" y="640" width="120" height="60" as="geometry" />
        </mxCell>
        <mxCell id="0DL_U8hL-LAHc2jkmgp_-18" value="" style="endArrow=classic;html=1;exitX=1;exitY=0.5;exitDx=0;exitDy=0;entryX=0.5;entryY=0;entryDx=0;entryDy=0;" edge="1" parent="1" source="0DL_U8hL-LAHc2jkmgp_-5" target="0DL_U8hL-LAHc2jkmgp_-13">
          <mxGeometry width="50" height="50" relative="1" as="geometry">
            <mxPoint x="600" y="440" as="sourcePoint" />
            <mxPoint x="520" y="480" as="targetPoint" />
            <Array as="points">
              <mxPoint x="680" y="430" />
            </Array>
          </mxGeometry>
        </mxCell>
        <mxCell id="0DL_U8hL-LAHc2jkmgp_-19" value="" style="endArrow=classic;html=1;exitX=1;exitY=0.5;exitDx=0;exitDy=0;entryX=0.5;entryY=0;entryDx=0;entryDy=0;" edge="1" parent="1" source="0DL_U8hL-LAHc2jkmgp_-6" target="0DL_U8hL-LAHc2jkmgp_-14">
          <mxGeometry width="50" height="50" relative="1" as="geometry">
            <mxPoint x="490" y="470" as="sourcePoint" />
            <mxPoint x="540" y="420" as="targetPoint" />
            <Array as="points">
              <mxPoint x="520" y="510" />
            </Array>
          </mxGeometry>
        </mxCell>
        <mxCell id="0DL_U8hL-LAHc2jkmgp_-20" value="" style="endArrow=classic;html=1;entryX=0.5;entryY=0;entryDx=0;entryDy=0;exitX=1;exitY=0.5;exitDx=0;exitDy=0;" edge="1" parent="1" source="0DL_U8hL-LAHc2jkmgp_-7" target="0DL_U8hL-LAHc2jkmgp_-15">
          <mxGeometry width="50" height="50" relative="1" as="geometry">
            <mxPoint x="320" y="600" as="sourcePoint" />
            <mxPoint x="380" y="635" as="targetPoint" />
            <Array as="points">
              <mxPoint x="380" y="590" />
            </Array>
          </mxGeometry>
        </mxCell>
        <mxCell id="0DL_U8hL-LAHc2jkmgp_-22" value="No" style="text;html=1;strokeColor=none;fillColor=none;align=center;verticalAlign=middle;whiteSpace=wrap;rounded=0;" vertex="1" parent="1">
          <mxGeometry x="400" y="400" width="40" height="20" as="geometry" />
        </mxCell>
        <mxCell id="0DL_U8hL-LAHc2jkmgp_-23" value="No" style="text;html=1;strokeColor=none;fillColor=none;align=center;verticalAlign=middle;whiteSpace=wrap;rounded=0;" vertex="1" parent="1">
          <mxGeometry x="290" y="480" width="40" height="20" as="geometry" />
        </mxCell>
        <mxCell id="0DL_U8hL-LAHc2jkmgp_-24" value="No" style="text;html=1;strokeColor=none;fillColor=none;align=center;verticalAlign=middle;whiteSpace=wrap;rounded=0;" vertex="1" parent="1">
          <mxGeometry x="160" y="565" width="40" height="20" as="geometry" />
        </mxCell>
        <mxCell id="0DL_U8hL-LAHc2jkmgp_-26" value="Si" style="text;html=1;strokeColor=none;fillColor=none;align=center;verticalAlign=middle;whiteSpace=wrap;rounded=0;" vertex="1" parent="1">
          <mxGeometry x="570" y="400" width="40" height="20" as="geometry" />
        </mxCell>
        <mxCell id="0DL_U8hL-LAHc2jkmgp_-27" value="Si" style="text;html=1;strokeColor=none;fillColor=none;align=center;verticalAlign=middle;whiteSpace=wrap;rounded=0;" vertex="1" parent="1">
          <mxGeometry x="450" y="480" width="40" height="20" as="geometry" />
        </mxCell>
        <mxCell id="0DL_U8hL-LAHc2jkmgp_-28" value="Si" style="text;html=1;strokeColor=none;fillColor=none;align=center;verticalAlign=middle;whiteSpace=wrap;rounded=0;" vertex="1" parent="1">
          <mxGeometry x="340" y="565" width="40" height="20" as="geometry" />
        </mxCell>
        <mxCell id="0DL_U8hL-LAHc2jkmgp_-30" value="Imprimir &quot;El monto que se paga en comisiones es de&quot; +C" style="strokeWidth=1;html=1;shape=mxgraph.flowchart.display;whiteSpace=wrap;" vertex="1" parent="1">
          <mxGeometry x="600" y="585" width="160" height="75" as="geometry" />
        </mxCell>
        <mxCell id="0DL_U8hL-LAHc2jkmgp_-34" value="Imprimir &quot;El monto que se paga en comisiones es de&quot; +C" style="strokeWidth=1;html=1;shape=mxgraph.flowchart.display;whiteSpace=wrap;" vertex="1" parent="1">
          <mxGeometry x="300" y="770" width="160" height="75" as="geometry" />
        </mxCell>
        <mxCell id="0DL_U8hL-LAHc2jkmgp_-42" value="" style="edgeStyle=orthogonalEdgeStyle;rounded=0;orthogonalLoop=1;jettySize=auto;html=1;" edge="1" parent="1" source="0DL_U8hL-LAHc2jkmgp_-35" target="0DL_U8hL-LAHc2jkmgp_-41">
          <mxGeometry relative="1" as="geometry" />
        </mxCell>
        <mxCell id="0DL_U8hL-LAHc2jkmgp_-35" value="Imprimir &quot;El monto que se paga en comisiones es de&quot; +C" style="strokeWidth=1;html=1;shape=mxgraph.flowchart.display;whiteSpace=wrap;" vertex="1" parent="1">
          <mxGeometry x="50" y="770" width="160" height="75" as="geometry" />
        </mxCell>
        <mxCell id="0DL_U8hL-LAHc2jkmgp_-36" value="Imprimir &quot;El monto que se paga en comisiones es de&quot; +C" style="strokeWidth=1;html=1;shape=mxgraph.flowchart.display;whiteSpace=wrap;" vertex="1" parent="1">
          <mxGeometry x="440" y="690" width="160" height="75" as="geometry" />
        </mxCell>
        <mxCell id="0DL_U8hL-LAHc2jkmgp_-41" value="Fin" style="ellipse;whiteSpace=wrap;html=1;strokeWidth=1;" vertex="1" parent="1">
          <mxGeometry x="70" y="890" width="120" height="80" as="geometry" />
        </mxCell>
        <mxCell id="0DL_U8hL-LAHc2jkmgp_-43" value="" style="endArrow=classic;html=1;exitX=0.5;exitY=1;exitDx=0;exitDy=0;exitPerimeter=0;entryX=1;entryY=0.5;entryDx=0;entryDy=0;" edge="1" parent="1" source="0DL_U8hL-LAHc2jkmgp_-34" target="0DL_U8hL-LAHc2jkmgp_-41">
          <mxGeometry width="50" height="50" relative="1" as="geometry">
            <mxPoint x="490" y="800" as="sourcePoint" />
            <mxPoint x="540" y="750" as="targetPoint" />
            <Array as="points">
              <mxPoint x="380" y="930" />
            </Array>
          </mxGeometry>
        </mxCell>
        <mxCell id="0DL_U8hL-LAHc2jkmgp_-44" value="" style="endArrow=classic;html=1;exitX=0.5;exitY=1;exitDx=0;exitDy=0;exitPerimeter=0;entryX=1;entryY=0.5;entryDx=0;entryDy=0;" edge="1" parent="1" source="0DL_U8hL-LAHc2jkmgp_-36" target="0DL_U8hL-LAHc2jkmgp_-41">
          <mxGeometry width="50" height="50" relative="1" as="geometry">
            <mxPoint x="490" y="800" as="sourcePoint" />
            <mxPoint x="540" y="750" as="targetPoint" />
            <Array as="points">
              <mxPoint x="520" y="930" />
            </Array>
          </mxGeometry>
        </mxCell>
        <mxCell id="0DL_U8hL-LAHc2jkmgp_-45" value="" style="endArrow=classic;html=1;exitX=0.5;exitY=1;exitDx=0;exitDy=0;exitPerimeter=0;entryX=1;entryY=0.5;entryDx=0;entryDy=0;" edge="1" parent="1" source="0DL_U8hL-LAHc2jkmgp_-30" target="0DL_U8hL-LAHc2jkmgp_-41">
          <mxGeometry width="50" height="50" relative="1" as="geometry">
            <mxPoint x="490" y="800" as="sourcePoint" />
            <mxPoint x="540" y="750" as="targetPoint" />
            <Array as="points">
              <mxPoint x="680" y="930" />
            </Array>
          </mxGeometry>
        </mxCell>
        <mxCell id="0DL_U8hL-LAHc2jkmgp_-46" value="&lt;ol start=&quot;2&quot; style=&quot;padding: 0px ; margin: 0px 0px 6px 25px ; font-family: &amp;#34;latoweb&amp;#34; , &amp;#34;lato extended&amp;#34; , &amp;#34;lato&amp;#34; , &amp;#34;helvetica neue&amp;#34; , &amp;#34;helvetica&amp;#34; , &amp;#34;arial&amp;#34; , sans-serif ; background-color: rgb(255 , 255 , 255)&quot;&gt;&lt;li style=&quot;text-align: justify&quot;&gt;&lt;font style=&quot;font-size: 12px&quot;&gt;Desarrollar un D.F que determine si un número ingresado por teclado es perfecto o no. En caso de serlo o no imprima el mensaje respectivo. Un número perfecto es el que sumados sus divisores reproduce el mismo número. El número 6 es un número perfecto porque la suma de sus divisores (1+2+3) es igual a 6.&lt;/font&gt;&lt;/li&gt;&lt;/ol&gt;" style="text;html=1;strokeColor=none;fillColor=none;align=center;verticalAlign=middle;whiteSpace=wrap;rounded=0;" vertex="1" parent="1">
          <mxGeometry x="30" y="1230" width="550" height="20" as="geometry" />
        </mxCell>
        <mxCell id="0DL_U8hL-LAHc2jkmgp_-47" value="Inicio" style="ellipse;whiteSpace=wrap;html=1;strokeWidth=1;" vertex="1" parent="1">
          <mxGeometry x="354" y="1290" width="120" height="80" as="geometry" />
        </mxCell>
        <mxCell id="0DL_U8hL-LAHc2jkmgp_-48" value="Leer N" style="shape=parallelogram;perimeter=parallelogramPerimeter;whiteSpace=wrap;html=1;fixedSize=1;strokeWidth=1;" vertex="1" parent="1">
          <mxGeometry x="352" y="1500" width="120" height="60" as="geometry" />
        </mxCell>
        <mxCell id="0DL_U8hL-LAHc2jkmgp_-49" value="&lt;ol start=&quot;3&quot; style=&quot;padding: 0px ; margin: 0px 0px 6px 25px ; font-family: &amp;#34;latoweb&amp;#34; , &amp;#34;lato extended&amp;#34; , &amp;#34;lato&amp;#34; , &amp;#34;helvetica neue&amp;#34; , &amp;#34;helvetica&amp;#34; , &amp;#34;arial&amp;#34; , sans-serif ; background-color: rgb(255 , 255 , 255)&quot;&gt;&lt;li style=&quot;text-align: justify&quot;&gt;&lt;font style=&quot;font-size: 13px&quot;&gt;Desarrollar un D.F que lea 10 números y sume los números impares ingresados.&amp;nbsp;&lt;/font&gt;&lt;/li&gt;&lt;/ol&gt;" style="text;html=1;strokeColor=none;fillColor=none;align=center;verticalAlign=middle;whiteSpace=wrap;rounded=0;" vertex="1" parent="1">
          <mxGeometry x="20" y="2370" width="510" height="20" as="geometry" />
        </mxCell>
        <mxCell id="0DL_U8hL-LAHc2jkmgp_-51" value="Inicio" style="ellipse;whiteSpace=wrap;html=1;rounded=0;sketch=0;" vertex="1" parent="1">
          <mxGeometry x="342" y="2460" width="120" height="80" as="geometry" />
        </mxCell>
        <mxCell id="0DL_U8hL-LAHc2jkmgp_-62" value="" style="edgeStyle=orthogonalEdgeStyle;curved=0;rounded=1;sketch=0;orthogonalLoop=1;jettySize=auto;html=1;" edge="1" parent="1" source="0DL_U8hL-LAHc2jkmgp_-52">
          <mxGeometry relative="1" as="geometry">
            <mxPoint x="414" y="1500" as="targetPoint" />
          </mxGeometry>
        </mxCell>
        <mxCell id="0DL_U8hL-LAHc2jkmgp_-52" value="p=FALSO, S=0, D=1" style="html=1;strokeWidth=1;shape=manualInput;whiteSpace=wrap;rounded=1;size=26;arcSize=11;sketch=0;" vertex="1" parent="1">
          <mxGeometry x="356" y="1400" width="116" height="70" as="geometry" />
        </mxCell>
        <mxCell id="0DL_U8hL-LAHc2jkmgp_-53" value="D&amp;lt;=N/2" style="rhombus;whiteSpace=wrap;html=1;rounded=0;sketch=0;strokeWidth=1;" vertex="1" parent="1">
          <mxGeometry x="374" y="1600" width="80" height="80" as="geometry" />
        </mxCell>
        <mxCell id="0DL_U8hL-LAHc2jkmgp_-54" value="S==N" style="rhombus;whiteSpace=wrap;html=1;rounded=0;sketch=0;strokeWidth=1;" vertex="1" parent="1">
          <mxGeometry x="530" y="1680" width="80" height="80" as="geometry" />
        </mxCell>
        <mxCell id="0DL_U8hL-LAHc2jkmgp_-55" value="N/2==0" style="rhombus;whiteSpace=wrap;html=1;rounded=0;sketch=0;strokeWidth=1;" vertex="1" parent="1">
          <mxGeometry x="220" y="1680" width="80" height="80" as="geometry" />
        </mxCell>
        <mxCell id="0DL_U8hL-LAHc2jkmgp_-56" value="P=VERDADERO" style="rounded=1;whiteSpace=wrap;html=1;sketch=0;strokeWidth=1;" vertex="1" parent="1">
          <mxGeometry x="680" y="1760" width="120" height="60" as="geometry" />
        </mxCell>
        <mxCell id="0DL_U8hL-LAHc2jkmgp_-57" value="P" style="strokeWidth=1;html=1;shape=mxgraph.flowchart.display;whiteSpace=wrap;rounded=0;sketch=0;" vertex="1" parent="1">
          <mxGeometry x="520" y="1820" width="100" height="60" as="geometry" />
        </mxCell>
        <mxCell id="0DL_U8hL-LAHc2jkmgp_-58" value="Fin" style="ellipse;whiteSpace=wrap;html=1;rounded=0;sketch=0;strokeWidth=1;" vertex="1" parent="1">
          <mxGeometry x="510" y="1930" width="120" height="80" as="geometry" />
        </mxCell>
        <mxCell id="0DL_U8hL-LAHc2jkmgp_-59" value="S=S+D" style="rounded=1;whiteSpace=wrap;html=1;sketch=0;strokeWidth=1;" vertex="1" parent="1">
          <mxGeometry x="352" y="1760" width="120" height="60" as="geometry" />
        </mxCell>
        <mxCell id="0DL_U8hL-LAHc2jkmgp_-60" value="D=D+1" style="rounded=1;whiteSpace=wrap;html=1;sketch=0;strokeWidth=1;" vertex="1" parent="1">
          <mxGeometry x="200" y="1820" width="120" height="60" as="geometry" />
        </mxCell>
        <mxCell id="0DL_U8hL-LAHc2jkmgp_-63" value="" style="endArrow=classic;html=1;exitX=0.5;exitY=1;exitDx=0;exitDy=0;entryX=0.503;entryY=0.195;entryDx=0;entryDy=0;entryPerimeter=0;" edge="1" parent="1" source="0DL_U8hL-LAHc2jkmgp_-47" target="0DL_U8hL-LAHc2jkmgp_-52">
          <mxGeometry width="50" height="50" relative="1" as="geometry">
            <mxPoint x="400" y="1650" as="sourcePoint" />
            <mxPoint x="450" y="1600" as="targetPoint" />
          </mxGeometry>
        </mxCell>
        <mxCell id="0DL_U8hL-LAHc2jkmgp_-64" value="" style="endArrow=classic;html=1;entryX=0.5;entryY=0;entryDx=0;entryDy=0;" edge="1" parent="1" target="0DL_U8hL-LAHc2jkmgp_-53">
          <mxGeometry width="50" height="50" relative="1" as="geometry">
            <mxPoint x="414" y="1560" as="sourcePoint" />
            <mxPoint x="450" y="1600" as="targetPoint" />
          </mxGeometry>
        </mxCell>
        <mxCell id="0DL_U8hL-LAHc2jkmgp_-65" value="" style="endArrow=classic;html=1;exitX=0;exitY=0.5;exitDx=0;exitDy=0;entryX=0.5;entryY=0;entryDx=0;entryDy=0;" edge="1" parent="1" source="0DL_U8hL-LAHc2jkmgp_-53" target="0DL_U8hL-LAHc2jkmgp_-55">
          <mxGeometry width="50" height="50" relative="1" as="geometry">
            <mxPoint x="400" y="1740" as="sourcePoint" />
            <mxPoint x="450" y="1690" as="targetPoint" />
            <Array as="points">
              <mxPoint x="260" y="1640" />
            </Array>
          </mxGeometry>
        </mxCell>
        <mxCell id="0DL_U8hL-LAHc2jkmgp_-66" value="" style="endArrow=classic;html=1;exitX=1;exitY=0.5;exitDx=0;exitDy=0;entryX=0.5;entryY=0;entryDx=0;entryDy=0;" edge="1" parent="1" source="0DL_U8hL-LAHc2jkmgp_-53" target="0DL_U8hL-LAHc2jkmgp_-54">
          <mxGeometry width="50" height="50" relative="1" as="geometry">
            <mxPoint x="400" y="1740" as="sourcePoint" />
            <mxPoint x="450" y="1690" as="targetPoint" />
            <Array as="points">
              <mxPoint x="570" y="1640" />
            </Array>
          </mxGeometry>
        </mxCell>
        <mxCell id="0DL_U8hL-LAHc2jkmgp_-67" value="" style="endArrow=classic;html=1;exitX=1;exitY=0.5;exitDx=0;exitDy=0;entryX=0.5;entryY=0;entryDx=0;entryDy=0;" edge="1" parent="1" source="0DL_U8hL-LAHc2jkmgp_-54" target="0DL_U8hL-LAHc2jkmgp_-56">
          <mxGeometry width="50" height="50" relative="1" as="geometry">
            <mxPoint x="400" y="1740" as="sourcePoint" />
            <mxPoint x="450" y="1690" as="targetPoint" />
            <Array as="points">
              <mxPoint x="740" y="1720" />
            </Array>
          </mxGeometry>
        </mxCell>
        <mxCell id="0DL_U8hL-LAHc2jkmgp_-68" value="" style="endArrow=classic;html=1;exitX=0.5;exitY=1;exitDx=0;exitDy=0;entryX=0.5;entryY=0;entryDx=0;entryDy=0;entryPerimeter=0;" edge="1" parent="1" source="0DL_U8hL-LAHc2jkmgp_-54" target="0DL_U8hL-LAHc2jkmgp_-57">
          <mxGeometry width="50" height="50" relative="1" as="geometry">
            <mxPoint x="400" y="1740" as="sourcePoint" />
            <mxPoint x="450" y="1690" as="targetPoint" />
          </mxGeometry>
        </mxCell>
        <mxCell id="0DL_U8hL-LAHc2jkmgp_-69" value="" style="endArrow=classic;html=1;exitX=0.5;exitY=1;exitDx=0;exitDy=0;exitPerimeter=0;entryX=0.5;entryY=0;entryDx=0;entryDy=0;" edge="1" parent="1" source="0DL_U8hL-LAHc2jkmgp_-57" target="0DL_U8hL-LAHc2jkmgp_-58">
          <mxGeometry width="50" height="50" relative="1" as="geometry">
            <mxPoint x="400" y="1740" as="sourcePoint" />
            <mxPoint x="450" y="1690" as="targetPoint" />
          </mxGeometry>
        </mxCell>
        <mxCell id="0DL_U8hL-LAHc2jkmgp_-70" value="" style="endArrow=classic;html=1;exitX=0.5;exitY=1;exitDx=0;exitDy=0;entryX=1;entryY=0.5;entryDx=0;entryDy=0;entryPerimeter=0;" edge="1" parent="1" source="0DL_U8hL-LAHc2jkmgp_-56" target="0DL_U8hL-LAHc2jkmgp_-57">
          <mxGeometry width="50" height="50" relative="1" as="geometry">
            <mxPoint x="400" y="1740" as="sourcePoint" />
            <mxPoint x="450" y="1690" as="targetPoint" />
            <Array as="points">
              <mxPoint x="740" y="1850" />
            </Array>
          </mxGeometry>
        </mxCell>
        <mxCell id="0DL_U8hL-LAHc2jkmgp_-71" value="" style="endArrow=classic;html=1;exitX=1;exitY=0.5;exitDx=0;exitDy=0;entryX=0.5;entryY=0;entryDx=0;entryDy=0;" edge="1" parent="1" source="0DL_U8hL-LAHc2jkmgp_-55" target="0DL_U8hL-LAHc2jkmgp_-59">
          <mxGeometry width="50" height="50" relative="1" as="geometry">
            <mxPoint x="400" y="1830" as="sourcePoint" />
            <mxPoint x="450" y="1780" as="targetPoint" />
            <Array as="points">
              <mxPoint x="412" y="1720" />
            </Array>
          </mxGeometry>
        </mxCell>
        <mxCell id="0DL_U8hL-LAHc2jkmgp_-72" value="" style="endArrow=classic;html=1;exitX=0.5;exitY=1;exitDx=0;exitDy=0;entryX=0.5;entryY=0;entryDx=0;entryDy=0;" edge="1" parent="1" source="0DL_U8hL-LAHc2jkmgp_-55" target="0DL_U8hL-LAHc2jkmgp_-60">
          <mxGeometry width="50" height="50" relative="1" as="geometry">
            <mxPoint x="400" y="1830" as="sourcePoint" />
            <mxPoint x="450" y="1780" as="targetPoint" />
          </mxGeometry>
        </mxCell>
        <mxCell id="0DL_U8hL-LAHc2jkmgp_-74" value="" style="endArrow=classic;html=1;exitX=0.5;exitY=1;exitDx=0;exitDy=0;entryX=1;entryY=0.5;entryDx=0;entryDy=0;" edge="1" parent="1" source="0DL_U8hL-LAHc2jkmgp_-59" target="0DL_U8hL-LAHc2jkmgp_-60">
          <mxGeometry width="50" height="50" relative="1" as="geometry">
            <mxPoint x="400" y="1830" as="sourcePoint" />
            <mxPoint x="450" y="1780" as="targetPoint" />
            <Array as="points">
              <mxPoint x="412" y="1850" />
            </Array>
          </mxGeometry>
        </mxCell>
        <mxCell id="0DL_U8hL-LAHc2jkmgp_-75" value="" style="endArrow=classic;html=1;exitX=0;exitY=0.5;exitDx=0;exitDy=0;" edge="1" parent="1" source="0DL_U8hL-LAHc2jkmgp_-60">
          <mxGeometry width="50" height="50" relative="1" as="geometry">
            <mxPoint x="400" y="1830" as="sourcePoint" />
            <mxPoint x="410" y="1580" as="targetPoint" />
            <Array as="points">
              <mxPoint x="150" y="1850" />
              <mxPoint x="150" y="1580" />
            </Array>
          </mxGeometry>
        </mxCell>
        <mxCell id="0DL_U8hL-LAHc2jkmgp_-76" value="Si" style="text;html=1;strokeColor=none;fillColor=none;align=center;verticalAlign=middle;whiteSpace=wrap;rounded=0;sketch=0;" vertex="1" parent="1">
          <mxGeometry x="640" y="1690" width="40" height="20" as="geometry" />
        </mxCell>
        <mxCell id="0DL_U8hL-LAHc2jkmgp_-77" value="Si" style="text;html=1;strokeColor=none;fillColor=none;align=center;verticalAlign=middle;whiteSpace=wrap;rounded=0;sketch=0;" vertex="1" parent="1">
          <mxGeometry x="312" y="1610" width="40" height="20" as="geometry" />
        </mxCell>
        <mxCell id="0DL_U8hL-LAHc2jkmgp_-78" value="Si" style="text;html=1;strokeColor=none;fillColor=none;align=center;verticalAlign=middle;whiteSpace=wrap;rounded=0;sketch=0;" vertex="1" parent="1">
          <mxGeometry x="340" y="1690" width="40" height="20" as="geometry" />
        </mxCell>
        <mxCell id="0DL_U8hL-LAHc2jkmgp_-79" value="No" style="text;html=1;strokeColor=none;fillColor=none;align=center;verticalAlign=middle;whiteSpace=wrap;rounded=0;sketch=0;" vertex="1" parent="1">
          <mxGeometry x="210" y="1770" width="40" height="20" as="geometry" />
        </mxCell>
        <mxCell id="0DL_U8hL-LAHc2jkmgp_-80" value="No" style="text;html=1;strokeColor=none;fillColor=none;align=center;verticalAlign=middle;whiteSpace=wrap;rounded=0;sketch=0;" vertex="1" parent="1">
          <mxGeometry x="490" y="1610" width="40" height="20" as="geometry" />
        </mxCell>
        <mxCell id="0DL_U8hL-LAHc2jkmgp_-81" value="No" style="text;html=1;strokeColor=none;fillColor=none;align=center;verticalAlign=middle;whiteSpace=wrap;rounded=0;sketch=0;" vertex="1" parent="1">
          <mxGeometry x="520" y="1780" width="40" height="20" as="geometry" />
        </mxCell>
      </root>
    </mxGraphModel>
  </diagram>
</mxfile>
